<?xml version="1.0" standalone="no"?>
<!DOCTYPE svg PUBLIC "-//W3C//DTD SVG 20010904//EN"
 "http://www.w3.org/TR/2001/REC-SVG-20010904/DTD/svg10.dtd">
<svg version="1.0" xmlns="http://www.w3.org/2000/svg"
 width="109.000000pt" height="109.000000pt" viewBox="0 0 109.000000 109.000000"
 preserveAspectRatio="xMidYMid meet">
<metadata>
Created by potrace 1.14, written by Peter Selinger 2001-2017
</metadata>
<g transform="translate(0.000000,109.000000) scale(0.100000,-0.100000)"
fill="#000000" stroke="none">
<path d="M505 944 c-58 -30 -99 -87 -108 -149 l-3 -28 -87 1 c-95 2 -99 -1
-92 -68 2 -19 6 -116 10 -215 4 -99 8 -196 10 -215 1 -19 3 -42 4 -51 0 -8 10
-25 21 -37 20 -22 25 -22 306 -22 l285 0 24 25 c16 15 25 36 26 57 1 18 2 49
4 68 1 19 5 105 9 190 4 85 9 178 11 207 3 61 3 61 -99 61 -38 1 -72 4 -76 9
-3 4 -12 27 -19 50 -29 105 -140 162 -226 117z m133 -61 c28 -24 67 -101 57
-111 -4 -5 -245 -5 -250 -1 -11 12 13 66 45 100 47 50 98 54 148 12z m5 -235
c34 -10 46 -26 31 -40 -3 -4 -21 0 -39 8 -74 31 -145 8 -145 -46 0 -33 29 -57
101 -84 96 -36 130 -96 94 -165 -29 -56 -129 -70 -211 -30 -35 18 -41 25 -34
39 9 16 13 16 57 -7 78 -40 163 -15 163 47 0 34 -31 61 -102 89 -102 41 -136
103 -87 165 34 43 83 50 172 24z"/>
</g>
</svg>
